<svg width="287" height="184" viewBox="0 0 287 184" fill="none" xmlns="http://www.w3.org/2000/svg">
<path d="M247.89 91.6392C246.037 89.5701 242.852 89.4082 240.799 91.2787L239.078 92.8464C237.053 94.6907 236.889 97.8207 238.709 99.8668L258.634 122.258C261.503 125.482 259.215 130.582 254.899 130.582H142.744C72.4245 130.582 15.1316 74.8163 12.5065 5.0065C12.4027 2.24703 10.1739 0 7.4125 0H5C2.23857 0 -0.00890045 2.24896 0.0858 5.00876C2.72267 81.8534 65.8046 143.027 143.158 143.433H254.707C259.052 143.433 261.329 148.594 258.4 151.804L238.385 173.729C236.522 175.77 236.667 178.935 238.711 180.796L240.371 182.309C242.43 184.184 245.624 184.016 247.475 181.934L285.005 139.72C286.694 137.82 286.689 134.955 284.993 133.062L247.89 91.6392Z" fill="#9333EA"/>
</svg>
