<svg width="289" height="186" viewBox="0 0 289 186" fill="none" xmlns="http://www.w3.org/2000/svg">
<path d="M39.3384 92.4248C41.1924 90.3493 44.3842 90.187 46.4391 92.0638L48.2242 93.6941C50.2426 95.5376 50.4065 98.6603 48.592 100.705L28.4438 123.408C25.5814 126.634 27.8711 131.727 32.1835 131.727H145.104C215.863 131.727 273.511 75.4493 276.13 5.00672C276.232 2.24721 278.461 0 281.223 0H283.71C286.471 0 288.719 2.24912 288.625 5.00896C285.995 82.5482 222.522 144.282 144.688 144.691H32.375C28.0326 144.691 25.7544 149.846 28.6778 153.057L48.9193 175.29C50.7762 177.33 50.6306 180.488 48.5939 182.348L46.8693 183.924C44.809 185.805 41.6073 185.636 39.7562 183.549L1.95211 140.911C0.269041 139.013 0.274342 136.155 1.96444 134.263L39.3384 92.4248Z" fill="#9333EA"/>
</svg>
