<svg width="233" height="233" viewBox="0 0 233 233" fill="none" xmlns="http://www.w3.org/2000/svg">
<g clip-path="url(#clip0_301_4)">
<path d="M138 0H95C42.5329 0 0 42.5329 0 95V138C0 190.467 42.5329 233 95 233H138C190.467 233 233 190.467 233 138V95C233 42.5329 190.467 0 138 0Z" fill="#EDFCFD"/>
<g clip-path="url(#clip1_301_4)">
<path d="M113.682 139.961C113.682 139.961 142.469 124.979 148.711 133.24C154.958 141.501 142.445 148.001 140.024 149.461C137.604 150.921 113.156 159.214 113.156 159.214L106.705 152.341L113.682 139.961Z" fill="#000080"/>
<path d="M125.035 147.978L136.512 154.153L146.997 156.423C147.752 156.587 148.214 157.353 147.997 158.099C147.877 158.516 147.567 158.845 147.158 158.985C144.557 159.892 134.962 163.176 134.147 162.675C133.204 162.097 121.606 156.964 121.606 156.964L125.035 147.978Z" fill="#FF735D"/>
<g opacity="0.6">
<path d="M148.001 158.095L133.368 162.274L133.862 162.522C134.288 162.739 134.778 162.799 135.239 162.691C136.48 162.394 139.896 161.504 147.146 159.017C147.567 158.873 147.889 158.524 148.001 158.095Z" fill="white"/>
</g>
<g opacity="0.6">
<path d="M130.835 157.987C131.185 157.798 131.674 157.927 131.875 158.268C132.076 158.608 131.951 159.106 131.606 159.302C131.261 159.495 130.667 159.358 130.506 158.997C130.341 158.636 130.522 158.059 130.908 157.955" fill="white"/>
</g>
<path d="M141.574 158.163C141.638 158.115 141.164 157.542 141.189 156.688C141.189 155.829 141.678 155.272 141.614 155.22C141.59 155.196 141.425 155.296 141.249 155.549C141.072 155.797 140.912 156.21 140.904 156.683C140.9 157.157 141.048 157.574 141.217 157.826C141.389 158.083 141.55 158.187 141.574 158.163Z" fill="#1A2E35"/>
<path d="M143.549 158.127C143.629 158.099 143.441 157.534 143.573 156.844C143.694 156.154 144.067 155.693 144.003 155.637C143.963 155.573 143.429 156.006 143.288 156.792C143.148 157.582 143.489 158.171 143.549 158.127Z" fill="#1A2E35"/>
<path d="M138.796 158.689C138.88 158.66 138.587 157.794 138.7 156.707C138.796 155.617 139.254 154.823 139.177 154.783C139.125 154.73 138.523 155.512 138.415 156.679C138.294 157.846 138.736 158.729 138.796 158.689Z" fill="#1A2E35"/>
<path d="M135.151 157.101C135.235 157.105 135.295 156.327 135.689 155.477C136.074 154.622 136.62 154.069 136.564 154.005C136.524 153.945 135.845 154.438 135.428 155.356C135.006 156.275 135.078 157.113 135.151 157.101Z" fill="#1A2E35"/>
<path d="M131.735 155.372C131.819 155.372 131.763 154.53 132.252 153.668C132.722 152.798 133.469 152.401 133.425 152.324C133.409 152.292 133.2 152.344 132.907 152.533C132.618 152.717 132.26 153.062 132 153.527C131.743 153.993 131.642 154.478 131.638 154.823C131.634 155.172 131.702 155.38 131.735 155.372Z" fill="#1A2E35"/>
<path d="M131.59 153.359C131.598 153.343 131.454 153.239 131.161 153.118C130.867 153.002 130.41 152.874 129.832 152.882C129.551 152.898 129.21 152.886 128.888 153.134C128.728 153.255 128.635 153.511 128.72 153.728C128.8 153.941 128.969 154.081 129.149 154.177C129.892 154.542 130.928 154.269 131.458 153.495C131.971 152.709 131.883 151.715 131.413 151.061C131.285 150.905 131.108 150.752 130.867 150.744C130.623 150.732 130.426 150.929 130.37 151.109C130.245 151.478 130.334 151.799 130.378 152.076C130.494 152.641 130.707 153.058 130.875 153.327C131.044 153.596 131.173 153.72 131.185 153.708C131.237 153.684 130.763 153.122 130.574 152.04C130.538 151.771 130.486 151.458 130.586 151.198C130.635 151.069 130.739 150.989 130.855 150.997C130.972 151.001 131.104 151.097 131.205 151.226C131.582 151.771 131.666 152.677 131.217 153.335C130.779 153.993 129.868 154.229 129.266 153.941C129.121 153.868 128.997 153.76 128.953 153.64C128.908 153.523 128.945 153.395 129.041 153.311C129.246 153.13 129.567 153.102 129.836 153.082C130.944 153.03 131.578 153.419 131.59 153.359Z" fill="#1A2E35"/>
<path d="M129.153 149.445C129.153 149.445 102.024 133.028 98.3586 130.991C95.2073 129.242 85.2516 125.368 81.747 134.9C78.2384 144.433 97.1262 158.496 97.1262 158.496L113.16 159.214L118.511 157.173L124.589 159.042L129.153 149.445Z" fill="#000080"/>
<path d="M110.077 159.547L97.9171 164.243L89.3744 170.727C88.7602 171.196 87.877 171.044 87.4515 170.398C87.2147 170.037 87.1625 169.588 87.3231 169.183C88.3267 166.621 92.0681 157.205 92.9753 156.908C94.0271 156.567 105.472 151.105 105.472 151.105L110.077 159.547Z" fill="#FF735D"/>
<g opacity="0.6">
<path d="M87.4474 170.398L93.7822 156.575L93.2724 156.788C92.8308 156.968 92.4695 157.301 92.2487 157.726C91.6666 158.861 90.125 162.033 87.2989 169.151C87.1383 169.56 87.1945 170.033 87.4474 170.398Z" fill="white"/>
</g>
<g opacity="0.6">
<path d="M98.6918 157.441C98.6075 157.83 98.19 158.115 97.8006 158.047C97.4112 157.979 97.1141 157.558 97.1904 157.169C97.2667 156.78 97.7564 156.419 98.1378 156.531C98.5192 156.643 98.8403 157.153 98.6717 157.514" fill="white"/>
</g>
<path d="M91.5744 165.474C91.5704 165.554 92.313 165.566 92.9473 166.143C93.6016 166.701 93.706 167.435 93.7863 167.419C93.8184 167.419 93.8505 167.226 93.7743 166.929C93.702 166.633 93.4933 166.244 93.136 165.931C92.7787 165.618 92.3652 165.462 92.0641 165.426C91.759 165.386 91.5744 165.442 91.5744 165.474Z" fill="#1A2E35"/>
<path d="M90.3177 166.998C90.2896 167.078 90.8396 167.302 91.2772 167.852C91.7268 168.389 91.8312 168.975 91.9155 168.963C91.9917 168.971 92.0078 168.289 91.498 167.671C90.9961 167.046 90.3217 166.921 90.3177 166.998Z" fill="#1A2E35"/>
<path d="M92.9833 163.023C92.9512 163.104 93.7982 163.445 94.5529 164.239C95.3197 165.021 95.6248 165.883 95.7091 165.851C95.7813 165.843 95.5806 164.88 94.7617 164.038C93.9508 163.192 92.9953 162.951 92.9833 163.023Z" fill="#1A2E35"/>
<path d="M96.5602 161.291C96.4999 161.351 97.0539 161.905 97.4433 162.755C97.8448 163.601 97.909 164.379 97.9933 164.375C98.0656 164.383 98.1298 163.545 97.7043 162.635C97.2828 161.72 96.6003 161.227 96.5602 161.291Z" fill="#1A2E35"/>
<path d="M100.097 159.82C100.045 159.884 100.719 160.389 101.056 161.319C101.414 162.242 101.229 163.068 101.313 163.08C101.345 163.088 101.442 162.895 101.49 162.55C101.538 162.21 101.51 161.716 101.325 161.219C101.137 160.722 100.835 160.329 100.579 160.104C100.314 159.876 100.113 159.791 100.097 159.82Z" fill="#1A2E35"/>
<path d="M101.719 161.022C101.727 161.038 101.899 160.998 102.18 160.85C102.461 160.702 102.855 160.441 103.224 159.996C103.393 159.775 103.626 159.519 103.646 159.118C103.658 158.917 103.521 158.681 103.304 158.604C103.092 158.528 102.875 158.564 102.682 158.64C101.923 158.969 101.454 159.928 101.699 160.834C101.96 161.736 102.778 162.314 103.577 162.382C103.778 162.386 104.011 162.35 104.176 162.173C104.344 161.997 104.324 161.72 104.224 161.56C104.023 161.223 103.722 161.083 103.485 160.938C102.979 160.662 102.522 160.549 102.208 160.505C101.891 160.457 101.715 160.477 101.715 160.493C101.703 160.549 102.433 160.553 103.381 161.115C103.605 161.263 103.882 161.427 104.011 161.672C104.075 161.792 104.071 161.921 103.987 162.009C103.911 162.093 103.746 162.133 103.585 162.121C102.927 162.057 102.18 161.524 101.972 160.758C101.759 159.996 102.168 159.154 102.778 158.885C102.927 158.821 103.092 158.801 103.212 158.841C103.332 158.885 103.405 158.993 103.405 159.122C103.409 159.394 103.22 159.655 103.059 159.872C102.393 160.742 101.687 160.974 101.719 161.022Z" fill="#1A2E35"/>
<path d="M104.794 162.582C105.135 162.406 118.864 156.82 118.864 156.82L105.215 150.067L96.9897 154.322L104.794 162.582Z" fill="#000080"/>
<path d="M87.8167 146.073C87.8167 146.073 87.8809 146.089 88.0053 146.129C88.1378 146.173 88.3144 146.233 88.5473 146.309C89.033 146.478 89.7315 146.718 90.6268 147.027C92.4372 147.661 95.0426 148.575 98.2541 149.702C104.697 151.975 113.585 155.107 123.4 158.568C123.81 158.693 124.215 158.817 124.621 158.941L124.496 158.997C126.098 155.629 127.64 152.393 129.065 149.401L129.101 149.529C122.694 145.615 117.19 142.251 113.284 139.865C111.345 138.67 109.8 137.719 108.732 137.062C108.21 136.737 107.804 136.484 107.523 136.308C107.391 136.224 107.291 136.159 107.214 136.111C107.146 136.067 107.11 136.043 107.114 136.039C107.114 136.035 107.154 136.055 107.226 136.095C107.307 136.139 107.411 136.2 107.544 136.28C107.829 136.448 108.242 136.693 108.772 137.006C109.848 137.651 111.401 138.586 113.356 139.761C117.274 142.135 122.79 145.471 129.213 149.361L129.29 149.409L129.25 149.489C127.828 152.481 126.291 155.721 124.689 159.09L124.649 159.17L124.561 159.142C124.155 159.017 123.75 158.893 123.34 158.765C122.714 158.584 122.108 158.356 121.502 158.143C120.895 157.927 120.293 157.714 119.695 157.502C118.499 157.077 117.323 156.659 116.167 156.246C113.854 155.424 111.622 154.63 109.499 153.872C105.251 152.356 101.426 150.989 98.2099 149.838C95.0064 148.683 92.4091 147.753 90.6027 147.103C89.7115 146.778 89.021 146.526 88.5393 146.349C88.3104 146.265 88.1338 146.197 88.0053 146.149C87.8769 146.101 87.8167 146.073 87.8167 146.073Z" fill="#375A64"/>
<path d="M104.794 162.582C104.782 162.59 104.601 162.418 104.284 162.097C103.943 161.748 103.493 161.283 102.947 160.722C101.827 159.555 100.29 157.931 98.5995 156.13C98.0053 155.496 97.4313 154.883 96.9014 154.314L96.8091 154.213L96.9295 154.153C98.5914 153.347 100.033 152.649 101.096 152.136C101.594 151.903 102 151.715 102.313 151.567C102.598 151.438 102.754 151.374 102.762 151.382C102.766 151.394 102.622 151.478 102.345 151.627C102.04 151.787 101.638 151.996 101.153 152.248C100.097 152.782 98.6677 153.499 97.0178 154.334L97.0459 154.177C97.5798 154.747 98.1539 155.356 98.752 155.99C100.442 157.79 101.96 159.431 103.055 160.622C103.581 161.203 104.015 161.68 104.34 162.041C104.645 162.378 104.806 162.57 104.794 162.582Z" fill="#375A64"/>
<path d="M132.493 135.983C132.517 136.035 129.137 137.503 124.946 139.259C120.755 141.016 117.343 142.395 117.319 142.343C117.295 142.291 120.675 140.823 124.866 139.067C129.057 137.311 132.473 135.931 132.493 135.983Z" fill="#375A64"/>
<path d="M111.614 94.6665C111.329 94.6665 101.426 94.5703 99.4265 96.5673C97.4273 98.5644 93.2764 129.15 93.2764 129.15C95.412 129.555 96.797 130.341 98.0977 130.986L114.93 140.791L122.216 137.01C123.224 136.452 123.473 135.117 122.734 134.235L132.429 99.2301C132.429 99.2301 130.566 97.7102 127.708 96.6636C124.85 95.6169 111.614 94.6665 111.614 94.6665Z" fill="#0869A6"/>
<path d="M129.149 97.9148C129.149 97.9148 132.128 98.5725 133.268 100.409C135.942 104.712 144.155 119.995 145.536 123.656C146.997 127.534 145.428 129.739 144.372 131.375C143.236 133.136 136.993 133.132 134.163 130.108C132.951 128.813 126.191 122.685 126.191 122.685L129.149 97.9148Z" fill="#0869A6"/>
<path d="M132.537 103.589C132.546 103.593 132.505 103.697 132.425 103.89C132.337 104.102 132.216 104.383 132.064 104.74C131.763 105.482 131.337 106.561 130.855 107.908C129.884 110.603 128.696 114.38 127.435 118.567C126.199 122.754 125.083 126.543 124.264 129.31C123.854 130.686 123.517 131.793 123.272 132.558C123.152 132.923 123.055 133.216 122.983 133.437C122.915 133.637 122.875 133.741 122.867 133.737C122.859 133.733 122.887 133.629 122.939 133.425C123.003 133.204 123.088 132.907 123.192 132.538C123.417 131.748 123.73 130.638 124.119 129.274C124.902 126.515 125.974 122.706 127.23 118.511C128.491 114.324 129.703 110.551 130.711 107.86C131.209 106.517 131.654 105.442 131.979 104.708C132.144 104.359 132.277 104.082 132.377 103.874C132.477 103.681 132.529 103.585 132.537 103.589Z" fill="#1A2E35"/>
<path d="M99.8881 96.2225C99.8881 96.2225 96.7609 97.999 95.6168 99.0456C94.4727 100.092 82.6502 116.911 81.1408 122.148C80.2656 125.188 83.6137 131.476 87.2266 131.171C91.9516 130.774 109.675 123.981 109.675 123.981L105.697 115.347L95.677 116.951L102.963 109.636L100.241 96.038" fill="#0869A6"/>
<path d="M141.939 121.863C141.935 121.867 141.875 121.831 141.759 121.755C141.626 121.663 141.466 121.551 141.269 121.418C140.823 121.098 140.221 120.668 139.49 120.143C137.997 119.056 135.938 117.545 133.678 115.864C133.16 115.479 132.654 115.102 132.164 114.737L132.309 114.717C130.863 116.598 129.583 118.234 128.648 119.393C127.716 120.552 127.122 121.23 127.086 121.194C127.347 120.857 127.764 120.315 128.543 119.309C129.466 118.102 130.719 116.458 132.148 114.589L132.208 114.509L132.289 114.569C132.778 114.93 133.284 115.307 133.802 115.692C136.066 117.372 138.109 118.9 139.579 120.019C140.293 120.564 140.879 121.017 141.317 121.35C141.506 121.499 141.658 121.623 141.783 121.719C141.887 121.807 141.943 121.855 141.939 121.863Z" fill="#1A2E35"/>
<path d="M113.878 112.279L105.93 115.836L109.101 122.722L114.071 119.441L113.878 112.279Z" fill="#C9655F"/>
<path d="M121.393 112.953L126.712 109.356C126.901 109.227 127.126 109.171 127.351 109.191L134.304 109.785C134.585 109.809 134.802 110.045 134.789 110.33C134.777 110.607 134.713 110.92 134.5 111.068C134.079 111.361 123.208 118.9 123.208 118.9L114.79 117.564L121.393 112.953Z" fill="#E1E1E1"/>
<path d="M113.878 112.279C113.878 112.279 116.749 110.154 117.423 110.037C118.098 109.921 121.133 109.933 121.133 109.933L123.682 111.389L122.104 112.46C121.008 112.219 120.691 111.79 120.691 111.79L118.929 111.906L113.878 112.279Z" fill="#C9655F"/>
<path d="M117.106 111.353L121.646 112.909L128.166 113.827C128.166 113.827 128.206 115.146 126.869 115.291C126.082 115.375 124.705 115.471 124.705 115.471C124.705 115.471 124.372 116.67 123.361 116.935C123.361 116.935 122.919 117.781 122.377 118.094C122.313 118.13 122.244 118.162 122.176 118.182C121.55 118.362 120.302 120.059 119.467 120.287C118.632 120.516 114.071 119.441 114.071 119.441L113.878 112.275L117.106 111.353Z" fill="#C9655F"/>
<path d="M118.443 115.054C118.447 115.034 118.8 115.13 119.378 115.247C119.956 115.363 120.763 115.487 121.658 115.547C122.558 115.604 123.372 115.587 123.959 115.543C124.545 115.503 124.91 115.451 124.91 115.471C124.91 115.479 124.822 115.499 124.661 115.531C124.496 115.563 124.26 115.6 123.967 115.632C123.376 115.696 122.553 115.732 121.65 115.672C120.747 115.612 119.936 115.475 119.358 115.335C119.069 115.267 118.84 115.202 118.68 115.15C118.527 115.094 118.443 115.062 118.443 115.054Z" fill="#A24640"/>
<path d="M119.322 116.911C119.334 116.915 119.342 117.083 119.274 117.356C119.238 117.488 119.173 117.657 119.029 117.797C118.888 117.937 118.66 118.006 118.439 117.99C118.218 117.978 118.017 117.905 117.853 117.821C117.688 117.737 117.548 117.653 117.431 117.584C117.198 117.448 117.038 117.392 117.042 117.376C117.046 117.36 117.218 117.388 117.471 117.508C117.724 117.617 118.045 117.845 118.443 117.869C118.64 117.881 118.824 117.825 118.949 117.713C119.073 117.601 119.141 117.456 119.186 117.332C119.274 117.079 119.302 116.907 119.322 116.911Z" fill="#A24640"/>
<path d="M122.67 117.356C122.674 117.372 122.485 117.424 122.176 117.48C121.867 117.537 121.433 117.597 120.952 117.629C120.47 117.661 120.036 117.661 119.719 117.645C119.406 117.629 119.209 117.605 119.209 117.589C119.209 117.553 119.988 117.573 120.94 117.508C121.895 117.444 122.662 117.32 122.67 117.356Z" fill="#A24640"/>
<path d="M119.23 119.237C119.25 119.261 118.941 119.493 118.483 119.562C118.025 119.634 117.66 119.505 117.672 119.477C117.68 119.441 118.033 119.509 118.463 119.437C118.896 119.377 119.214 119.205 119.23 119.237Z" fill="#A24640"/>
<path d="M120.867 119.153C120.871 119.185 120.655 119.245 120.378 119.281C120.105 119.317 119.876 119.321 119.872 119.285C119.868 119.253 120.085 119.193 120.362 119.157C120.635 119.124 120.863 119.12 120.867 119.153Z" fill="#A24640"/>
<path d="M121.646 112.913C121.63 112.961 120.675 112.652 119.523 112.203C118.945 111.978 118.427 111.766 118.057 111.597C117.688 111.433 117.467 111.309 117.475 111.293C117.483 111.277 117.716 111.373 118.094 111.517C118.511 111.678 119.013 111.874 119.567 112.087C120.121 112.303 120.623 112.5 121.04 112.66C121.417 112.812 121.646 112.897 121.646 112.913Z" fill="#A24640"/>
<path d="M128.302 114.549C128.302 114.549 127.796 114.376 128.338 113.582C128.88 112.792 130.398 113.751 130.398 113.751L132.337 114.906C132.337 114.906 132.774 115.912 132.232 116.181L131.835 116.67C131.835 116.67 132.59 117.436 132.285 118.106C131.979 118.78 131.229 118.679 131.229 118.679C131.229 118.679 131.317 120.035 130.875 120.556C130.434 121.077 130.032 121.125 130.032 121.125C130.032 121.125 129.663 122.248 128.358 122.581C127.058 122.914 126.375 122.938 126.022 122.389C125.669 121.843 125.448 121.145 125.448 121.145C125.448 121.145 122.658 119.682 122.598 118.94C122.538 118.198 122.666 118.13 122.666 118.13C122.666 118.13 122.441 117.512 122.722 117.059C123.003 116.606 124.111 116.999 124.111 116.999L127.668 117.833C127.668 117.833 124.822 116.494 124.481 116.057C124.139 115.62 124.505 115.086 125.649 115.218C126.793 115.355 130.249 116 130.249 116C130.249 116 130.077 115.656 129.848 115.559C129.615 115.463 128.9 115.046 128.9 115.046L128.302 114.549Z" fill="#C9655F"/>
<path d="M129.149 119.938C129.141 119.971 127.696 119.602 125.926 119.117C124.155 118.631 122.726 118.206 122.734 118.174C122.742 118.142 124.187 118.511 125.958 118.996C127.728 119.481 129.157 119.906 129.149 119.938Z" fill="#A24640"/>
<path d="M127.451 121.875C127.443 121.908 126.973 121.795 126.411 121.607C126.13 121.515 125.877 121.418 125.701 121.334C125.613 121.294 125.54 121.254 125.496 121.222C125.472 121.206 125.456 121.19 125.448 121.174C125.436 121.158 125.448 121.138 125.452 121.146C125.432 121.158 125.894 121.298 126.456 121.486C127.01 121.679 127.463 121.843 127.451 121.875Z" fill="#A24640"/>
<path d="M130.502 118.375C130.494 118.411 129.8 118.27 128.941 118.126C128.081 117.982 127.379 117.893 127.383 117.857C127.387 117.825 128.098 117.861 128.961 118.006C129.828 118.146 130.51 118.342 130.502 118.375Z" fill="#A24640"/>
<path d="M131.373 116.534C131.349 116.562 131.068 116.365 130.675 116.225C130.281 116.081 129.94 116.049 129.94 116.013C129.936 115.981 130.301 115.956 130.715 116.109C131.132 116.257 131.393 116.51 131.373 116.534Z" fill="#A24640"/>
<path d="M134.472 110.414C134.472 110.418 134.428 110.414 134.34 110.406C134.24 110.394 134.119 110.378 133.971 110.358C133.649 110.318 133.184 110.258 132.606 110.19C131.454 110.057 129.856 109.917 128.09 109.877C127.648 109.869 127.206 109.829 126.849 110.021C126.672 110.114 126.508 110.242 126.343 110.354C126.179 110.471 126.018 110.583 125.862 110.695C125.239 111.136 124.673 111.533 124.196 111.87C123.73 112.195 123.348 112.46 123.067 112.652C122.943 112.736 122.839 112.804 122.758 112.861C122.686 112.909 122.646 112.929 122.646 112.925C122.642 112.921 122.678 112.893 122.746 112.841C122.827 112.78 122.923 112.704 123.043 112.612C123.32 112.407 123.694 112.135 124.151 111.798C124.625 111.453 125.183 111.048 125.801 110.603C125.958 110.491 126.118 110.374 126.279 110.258C126.444 110.142 126.604 110.013 126.797 109.913C126.99 109.809 127.214 109.761 127.435 109.749C127.656 109.737 127.873 109.749 128.098 109.753C129.872 109.793 131.47 109.949 132.622 110.102C133.196 110.178 133.662 110.25 133.983 110.306C134.131 110.334 134.252 110.358 134.352 110.374C134.428 110.398 134.472 110.41 134.472 110.414Z" fill="#1A2E35"/>
<path d="M130.133 111.032C130.081 110.936 129.936 110.888 129.796 110.904L129.808 110.9C129.788 110.904 129.772 110.908 129.751 110.912C129.743 110.912 129.735 110.916 129.727 110.916C129.623 110.94 129.523 110.988 129.454 111.068C129.37 111.172 129.354 111.337 129.446 111.433C129.495 111.485 129.571 111.513 129.643 111.525C129.784 111.549 129.94 111.521 130.049 111.425C130.153 111.329 130.201 111.16 130.133 111.032Z" fill="white"/>
<path d="M114.324 72.4663C114.067 72.33 113.81 72.1936 113.553 72.0573C113.196 71.8648 112.782 71.6683 112.377 71.7846C111.996 71.8928 111.731 72.2578 111.337 72.2979C110.88 72.346 110.502 71.937 110.045 71.957C109.611 71.9771 109.27 72.3741 108.836 72.3701C108.511 72.366 108.174 72.1415 107.897 72.2979C107.841 72.33 107.792 72.3741 107.736 72.4142C107.431 72.6227 107.006 72.5024 106.668 72.354C106.331 72.2056 105.95 72.0372 105.601 72.1655C105.372 72.2498 105.215 72.4463 105.047 72.6107C104.878 72.7751 104.637 72.9275 104.4 72.8753C104.268 72.8473 104.159 72.7631 104.031 72.731C103.613 72.6267 103.268 73.0678 102.847 73.1801C102.453 73.2844 102.004 73.0919 101.642 73.2683C101.357 73.4087 101.241 73.7536 101.345 74.0222C101.45 74.2909 101.735 74.4834 102.044 74.5476C102.353 74.6117 102.682 74.5676 102.987 74.4754C103.236 74.3992 103.485 74.2949 103.746 74.303C104.344 74.323 104.814 74.9406 105.4 74.8162C105.689 74.7521 105.89 74.5275 106.122 74.3591C106.452 74.1185 106.869 73.9821 107.287 73.9821C107.564 73.9821 107.853 74.0383 108.11 73.934C108.423 73.8097 108.607 73.4728 108.937 73.3846C109.286 73.2884 109.647 73.5089 110.008 73.4769C110.249 73.4568 110.466 73.3245 110.707 73.3124C111.048 73.2924 111.357 73.513 111.699 73.4849C112.044 73.4568 112.345 73.1681 112.69 73.2002C112.827 73.2122 112.951 73.2723 113.079 73.3044C113.212 73.3365 113.369 73.3365 113.465 73.2443C113.541 73.1721 113.565 73.0558 113.658 73.0037C113.726 72.9636 113.814 72.9716 113.89 72.9796C114.268 73.0197 114.645 73.0558 115.022 73.0959L114.324 72.4663Z" fill="#1A2E35"/>
<path d="M115.54 72.4303C115.163 72.1496 114.653 71.8609 114.22 72.0934C114.063 72.1776 113.951 72.318 113.79 72.3942C113.429 72.5666 112.995 72.3421 112.61 72.4463C112.285 72.5346 112.072 72.8353 111.767 72.9877C111.281 73.2283 110.575 73.088 110.265 73.513C110.101 73.7456 110.073 74.1186 109.784 74.1787C109.683 74.1988 109.579 74.1707 109.479 74.1426C109.137 74.0584 108.772 74.0464 108.423 74.1105C108.222 74.1466 108.021 74.2108 107.873 74.3431C107.584 74.6038 107.576 75.0489 107.299 75.3216C106.885 75.7306 106.147 75.5341 105.617 75.7948C105.364 75.9191 105.179 76.1397 104.97 76.3241C104.573 76.673 104.075 76.9016 103.606 77.1542C103.136 77.4109 102.67 77.7197 102.409 78.1688C102.148 78.6139 102.16 79.2315 102.562 79.5443C102.75 79.6927 103.06 79.7448 103.236 79.5764C103.3 79.5162 103.337 79.44 103.397 79.3759C103.517 79.2475 103.702 79.2034 103.866 79.1393C104.031 79.0711 104.204 78.9468 104.204 78.7824C104.204 78.6781 104.143 78.5538 104.228 78.4816C104.26 78.4535 104.308 78.4455 104.352 78.4415C104.778 78.3974 105.3 78.4174 105.528 78.0686C105.629 77.9162 105.637 77.7317 105.701 77.5633C105.805 77.2866 106.07 77.062 106.371 76.9938C106.628 76.9337 106.925 76.9738 107.134 76.8134C107.371 76.6329 107.375 76.2881 107.592 76.0875C107.949 75.7507 108.656 75.9953 108.977 75.6304C109.057 75.5382 109.101 75.4219 109.202 75.3537C109.487 75.1652 109.84 75.5542 110.177 75.49C110.466 75.4339 110.579 75.1011 110.783 74.8965C111.04 74.6439 111.446 74.5998 111.775 74.4394C112.192 74.2349 112.502 73.8379 112.947 73.7055C113.332 73.5892 113.806 73.6694 114.091 73.3967C114.2 73.2925 114.276 73.1401 114.42 73.096C114.509 73.0679 114.597 73.088 114.685 73.1C115.119 73.1601 115.581 73.0639 115.958 72.8393L115.54 72.4303Z" fill="#1A2E35"/>
<path d="M114.894 73.4488C113.927 73.2804 112.895 73.5892 112.172 74.2669C112.008 74.4193 111.855 74.5917 111.658 74.688C111.353 74.8363 110.996 74.7722 110.659 74.8002C109.916 74.8604 109.238 75.4098 108.997 76.1396C108.844 76.6008 108.788 77.2063 108.347 77.3667C108.266 77.3948 108.178 77.4068 108.102 77.455C107.801 77.6394 108.009 78.1166 108.005 78.4775C108.001 79.0791 107.331 79.4921 107.307 80.0896C107.299 80.3102 107.379 80.5267 107.463 80.7313C107.696 81.3007 107.953 81.8621 108.23 82.4115C108.355 82.6561 108.519 82.9288 108.784 82.9649C109.165 83.017 109.402 82.5599 109.515 82.1789C109.595 81.9062 109.667 81.5974 109.535 81.3408C109.426 81.1283 109.194 81.0039 109.097 80.7834C108.941 80.4305 109.19 80.0455 109.374 79.7087C109.732 79.047 109.844 78.245 109.683 77.5031C110.101 77.4269 110.298 76.8575 110.715 76.7772C110.831 76.7532 110.956 76.7732 111.064 76.7331C111.345 76.6249 111.373 76.2038 111.618 76.0273C111.907 75.8228 112.433 75.9872 112.558 75.6464C112.598 75.5421 112.578 75.4098 112.642 75.3216C112.694 75.2534 112.782 75.2293 112.863 75.2053C113.2 75.1211 113.537 75.0368 113.874 74.9526C114.067 74.9045 114.268 74.8524 114.412 74.716C114.669 74.4714 114.713 73.9942 115.039 73.8659L114.894 73.4488Z" fill="#1A2E35"/>
<path d="M115.966 71.4397C115.926 70.8422 115.813 70.1324 115.288 69.8878C114.974 69.7434 114.601 69.8196 114.296 69.6632C113.71 69.3705 113.662 68.4201 113.08 68.1234C112.526 67.8386 111.743 68.2878 111.289 67.8467C111.052 67.6181 111.02 67.2371 110.823 66.9684C110.591 66.6516 110.173 66.5514 109.792 66.5273C109.41 66.5033 109.013 66.5273 108.66 66.3749C108.062 66.1103 107.672 65.3644 107.026 65.3163C106.48 65.2762 106.046 65.7574 105.705 66.1985C105.621 66.3108 105.528 66.4271 105.508 66.5674C105.468 66.816 105.657 67.0486 105.866 67.1729C106.299 67.4296 106.861 67.3895 107.271 67.6903C107.419 67.8025 107.544 67.9549 107.708 68.0431C107.941 68.1675 108.234 68.1394 108.459 68.2797C108.897 68.5484 108.889 69.2823 109.322 69.559C109.736 69.8196 110.273 69.5069 110.743 69.6191C111.385 69.7715 111.739 70.6658 112.397 70.6898C112.69 70.7019 112.959 70.5295 113.248 70.5014C113.618 70.4653 113.995 70.6898 114.159 71.0387C114.264 71.2633 114.284 71.528 114.404 71.7485C114.561 72.0252 114.862 72.1816 115.163 72.2257C115.464 72.2698 115.769 72.2217 116.07 72.1736L115.966 71.4397Z" fill="#1A2E35"/>
<path d="M115.464 73.2884C115.047 72.5305 114.569 71.7205 113.746 71.3676C113.332 71.1911 112.859 71.147 112.473 70.9225C112.144 70.73 111.907 70.4212 111.598 70.2006C110.88 69.6913 109.892 69.7234 109.005 69.8638C108.122 70.0041 107.21 70.2247 106.339 70.0121C105.565 69.8197 104.886 69.2943 104.083 69.2502C103.65 69.2262 103.22 69.3465 102.803 69.4708C102.317 69.6111 101.835 69.7515 101.349 69.8918C101.193 69.936 101.02 69.9961 100.94 70.1325C100.787 70.3931 101.088 70.6939 101.378 70.8142C101.843 71.0107 102.377 71.0668 102.879 70.9746C103.276 70.9024 103.67 70.734 104.067 70.7941C104.344 70.8342 104.589 70.9826 104.858 71.0508C105.195 71.139 105.549 71.1029 105.894 71.0668C106.432 71.0107 106.966 70.9585 107.504 70.9024C107.917 70.8583 108.359 70.8222 108.732 71.0027C109.021 71.143 109.25 71.4117 109.571 71.4478C109.928 71.4879 110.269 71.2192 110.627 71.2753C111.052 71.3395 111.265 71.8167 111.654 71.9972C112.116 72.2097 112.714 71.9611 113.16 72.2057C113.461 72.3701 113.589 72.707 113.778 72.9837C113.939 73.2123 114.147 73.4088 114.396 73.5531C114.709 73.7376 115.071 73.8338 115.424 73.9301L115.464 73.2884Z" fill="#1A2E35"/>
<path d="M116.315 69.9199C116.122 69.6552 115.829 69.3825 115.91 69.0657C115.95 68.9094 116.078 68.781 116.106 68.6206C116.155 68.3319 115.865 68.1073 115.753 67.8346C115.625 67.5098 115.753 67.1128 115.568 66.8161C115.38 66.5033 114.954 66.4591 114.601 66.3709C114.216 66.2747 113.822 66.0501 113.702 65.6691C113.621 65.4125 113.682 65.1318 113.654 64.8631C113.589 64.1613 112.903 63.616 112.2 63.5879C111.996 63.5799 111.783 63.6039 111.594 63.5197C111.253 63.3593 111.177 62.9222 110.984 62.6014C110.723 62.1643 110.169 61.9197 109.671 62.0239C109.43 62.072 109.169 62.3207 109.306 62.5252C109.362 62.6054 109.466 62.6415 109.543 62.7016C109.816 62.9342 109.619 63.4034 109.78 63.7202C109.948 64.0571 110.454 64.1132 110.611 64.4581C110.731 64.7187 110.591 65.0436 110.703 65.3082C110.839 65.633 111.265 65.7012 111.618 65.7253C111.971 65.7494 112.393 65.8215 112.525 66.1504C112.582 66.2947 112.57 66.4551 112.594 66.6075C112.638 66.8762 112.815 67.1208 113.059 67.2411C113.401 67.4136 113.878 67.3815 114.079 67.7063C114.308 68.0712 113.983 68.5885 114.183 68.9695C114.332 69.2502 114.693 69.3224 114.958 69.4908C115.018 69.5309 115.079 69.579 115.095 69.6472C115.115 69.7194 115.083 69.7956 115.047 69.8638C114.834 70.2969 114.565 70.7941 114.774 71.2272C114.858 71.4037 115.006 71.536 115.143 71.6723C115.58 72.1175 115.902 72.6749 116.074 73.2764L116.448 71.6443C116.729 71.0989 116.672 70.4091 116.315 69.9199Z" fill="#1A2E35"/>
<path d="M118.387 64.3939C118.531 63.9288 118.342 63.3633 117.913 63.1307C117.483 62.9022 116.857 63.1147 116.717 63.5799C116.556 64.1132 117.006 64.7388 116.721 65.22C116.644 65.3524 116.516 65.4566 116.476 65.601C116.375 65.9539 116.821 66.2506 116.821 66.6196C116.825 67.0246 116.311 67.2492 116.207 67.6422C116.082 68.0913 116.54 68.5685 116.375 69.0056C116.327 69.1299 116.239 69.2262 116.163 69.3344C115.693 70.0242 115.93 70.9505 116.187 71.7445L117.251 71.5882C117.058 70.8503 118.094 70.1124 117.74 69.4387C117.572 69.1179 117.11 68.8853 117.214 68.5404C117.242 68.4442 117.311 68.372 117.379 68.2958C117.708 67.9349 118.037 67.574 118.367 67.2131C118.511 67.0527 118.668 66.8762 118.688 66.6597C118.732 66.1905 118.142 65.8857 118.069 65.4205C118.017 65.0676 118.282 64.7428 118.387 64.3939Z" fill="#1A2E35"/>
<path d="M118.752 70.4171C118.652 70.0683 118.198 69.964 117.841 70.0161C116.853 70.1685 116.131 70.9906 115.5 71.7645C114.806 72.6147 114.107 73.4689 113.549 74.4153C113.425 74.6278 113.308 74.8484 113.276 75.089C113.248 75.3296 113.324 75.6023 113.525 75.7386C113.726 75.875 114.055 75.8188 114.147 75.5943L114.44 75.5221C115.396 73.898 116.681 72.4663 118.19 71.3395C118.499 71.1109 118.856 70.7861 118.752 70.4171Z" fill="#FF735D"/>
<path d="M113.32 85.5114C113.083 83.5585 112.855 81.5975 112.955 79.6325C113.055 77.6676 113.505 75.6906 114.529 74.0103C114.685 73.7577 115.914 72.0854 116.199 72.1696C116.403 72.2298 115.532 73.8419 115.601 74.0424C116.267 75.9632 116.138 78.0886 115.588 80.0456C115.039 82.0025 114.28 83.7189 113.32 85.5114Z" fill="#1A2E35"/>
<path d="M122.068 98.3198C122.349 96.9604 122.574 95.8856 122.586 95.8897C122.586 95.8897 127.359 96.3308 128.571 91.7552C129.157 89.5456 129.992 84.8978 130.699 80.6832C131.457 76.1517 128.603 71.8007 124.143 70.6818L123.702 70.5696C118.852 69.6472 115.36 73.2484 114.573 78.1167L111.273 95.0555L118.844 102.968L122.068 98.3198Z" fill="#C9655F"/>
<path d="M122.586 95.8897C122.586 95.8897 119.647 95.3323 117.05 92.6214C117.05 92.6214 117.668 96.3268 122.357 97.0646L122.586 95.8897Z" fill="#A24640"/>
<path d="M128.354 84.3204C128.278 84.6692 127.921 84.8938 127.556 84.8216C127.19 84.7494 126.953 84.4086 127.03 84.0597C127.106 83.7108 127.463 83.4862 127.829 83.5584C128.19 83.6306 128.427 83.9715 128.354 84.3204Z" fill="#1A2E35"/>
<path d="M129.238 82.3394C129.133 82.4036 128.732 81.9103 128.025 81.7379C127.323 81.5534 126.713 81.786 126.656 81.6777C126.628 81.6296 126.749 81.4973 127.018 81.389C127.283 81.2807 127.7 81.2165 128.138 81.3288C128.575 81.4411 128.904 81.6978 129.077 81.9143C129.25 82.1389 129.286 82.3113 129.238 82.3394Z" fill="#1A2E35"/>
<path d="M121.947 83.0933C121.871 83.4422 121.514 83.6668 121.148 83.5946C120.783 83.5224 120.546 83.1815 120.623 82.8326C120.699 82.4838 121.056 82.2592 121.421 82.3314C121.787 82.4036 122.024 82.7444 121.947 83.0933Z" fill="#1A2E35"/>
<path d="M122.248 80.8877C122.144 80.9518 121.739 80.4586 121.036 80.2861C120.334 80.1017 119.723 80.3343 119.667 80.226C119.639 80.1779 119.759 80.0455 120.028 79.9373C120.293 79.829 120.711 79.7648 121.148 79.8771C121.586 79.9894 121.915 80.246 122.088 80.4626C122.264 80.6872 122.301 80.8596 122.248 80.8877Z" fill="#1A2E35"/>
<path d="M123.417 86.943C123.425 86.9029 123.882 86.935 124.617 87.0232C124.802 87.0513 124.982 87.0553 125.042 86.943C125.119 86.8227 125.091 86.6102 125.054 86.3776C124.994 85.9004 124.934 85.3991 124.866 84.8738C124.617 82.7364 124.484 80.996 124.573 80.9879C124.661 80.9799 124.93 82.7043 125.179 84.8417C125.235 85.367 125.291 85.8683 125.344 86.3495C125.36 86.5701 125.42 86.8347 125.259 87.0794C125.175 87.2037 125.018 87.2678 124.898 87.2678C124.773 87.2759 124.673 87.2518 124.581 87.2317C123.854 87.0914 123.413 86.9831 123.417 86.943Z" fill="#1A2E35"/>
<path d="M121.217 86.9069C121.333 86.931 121.14 87.6929 121.662 88.4027C122.18 89.1125 123.019 89.2328 122.999 89.3411C122.999 89.3932 122.778 89.4454 122.433 89.3652C122.092 89.293 121.626 89.0604 121.309 88.6273C120.992 88.1942 120.932 87.705 120.984 87.3841C121.032 87.0593 121.165 86.8909 121.217 86.9069Z" fill="#1A2E35"/>
<path d="M122.931 78.0164C122.814 78.1888 122.132 77.9241 121.277 77.8159C120.426 77.6915 119.695 77.7637 119.631 77.5672C119.603 77.471 119.764 77.3226 120.081 77.2023C120.394 77.086 120.867 77.0138 121.377 77.086C121.887 77.1582 122.325 77.3507 122.594 77.5472C122.867 77.7437 122.983 77.9322 122.931 78.0164Z" fill="#1A2E35"/>
<path d="M129.535 79.9212C129.37 80.0496 128.924 79.7608 128.342 79.6084C127.764 79.432 127.234 79.444 127.162 79.2475C127.134 79.1553 127.25 79.0109 127.507 78.9147C127.76 78.8184 128.146 78.7824 128.543 78.8946C128.94 79.0069 129.254 79.2395 129.414 79.4561C129.583 79.6766 129.607 79.8571 129.535 79.9212Z" fill="#1A2E35"/>
<path d="M114.091 81.6055C114.023 81.5533 111.169 79.8811 110.482 83.0411C109.792 86.2051 113.112 86.2412 113.14 86.153C113.16 86.0647 114.091 81.6055 114.091 81.6055Z" fill="#C9655F"/>
<path d="M112.429 84.7454C112.417 84.7334 112.365 84.7735 112.265 84.7936C112.164 84.8136 112.004 84.8096 111.851 84.7134C111.542 84.5169 111.377 83.9274 111.486 83.3539C111.542 83.0652 111.662 82.8045 111.811 82.6C111.959 82.3915 112.144 82.2591 112.317 82.2672C112.493 82.2632 112.59 82.3915 112.61 82.4877C112.634 82.584 112.598 82.6441 112.614 82.6521C112.622 82.6602 112.694 82.612 112.698 82.4797C112.698 82.4155 112.678 82.3313 112.618 82.2551C112.554 82.1749 112.449 82.1228 112.329 82.1068C112.08 82.0707 111.811 82.2471 111.646 82.4717C111.466 82.6962 111.325 82.985 111.265 83.3098C111.145 83.9514 111.341 84.6171 111.771 84.8497C111.98 84.958 112.18 84.9299 112.293 84.8738C112.409 84.8216 112.441 84.7535 112.429 84.7454Z" fill="#A24640"/>
<path d="M129.739 75.0048C130.313 74.8284 129.117 72.8473 127.977 72.0132C126.251 70.754 123.449 69.6152 121.59 69.7475C119.35 69.9079 117.371 70.5936 115.906 72.2939C114.44 73.9983 113.573 76.1557 113.176 78.3653C113.055 79.039 112.979 79.7528 113.22 80.3944C113.517 81.1885 114.276 81.806 114.035 82.7644C113.947 83.1133 113.975 83.4903 114.163 83.7991C114.613 84.5369 115.444 84.1038 115.894 83.5905C116.849 82.4958 117.239 81.0281 117.596 79.6205C117.849 78.618 118.106 77.5954 118.025 76.5648C117.981 76.0033 117.837 75.4539 117.821 74.8925C117.809 74.3311 117.949 73.7256 118.375 73.3566C118.443 73.2965 118.551 73.2243 118.688 73.1481C119.752 72.5506 121.056 72.5747 122.1 73.2083C123.754 74.2108 126.608 75.7908 127.531 75.3497C128.86 74.7161 129.254 74.2068 129.254 74.2068L129.739 75.0048Z" fill="#1A2E35"/>
<path d="M95.9901 128.945C95.9861 128.941 96.0744 128.901 96.247 128.833C96.4317 128.761 96.6846 128.665 97.0017 128.544C97.6762 128.292 98.6356 127.935 99.8319 127.486C102.273 126.591 105.685 125.336 109.647 123.884L109.591 124.021C108.776 122.252 107.889 120.328 106.966 118.334C106.504 117.332 106.05 116.345 105.609 115.387L105.717 115.447C102 116.009 98.6236 116.518 95.8857 116.935L95.8938 116.931C93.6377 117.565 91.9355 118.467 90.8156 119.157C90.2535 119.501 89.832 119.798 89.547 119.999C89.4145 120.095 89.3061 120.171 89.2218 120.231C89.1496 120.283 89.1094 120.307 89.1054 120.303C89.1014 120.299 89.1375 120.267 89.2058 120.211C89.2861 120.147 89.3864 120.063 89.5149 119.958C89.7919 119.746 90.2054 119.437 90.7634 119.076C91.8753 118.359 93.5774 117.428 95.8456 116.771H95.8496H95.8536C98.5874 116.345 101.96 115.82 105.677 115.239L105.753 115.227L105.785 115.299C106.227 116.257 106.681 117.24 107.142 118.246C108.062 120.243 108.945 122.168 109.756 123.937L109.8 124.037L109.699 124.073C105.729 125.501 102.305 126.728 99.86 127.606C98.6557 128.031 97.6882 128.372 97.0098 128.608C96.6886 128.717 96.4357 128.805 96.247 128.869C96.0824 128.925 95.9941 128.953 95.9901 128.945Z" fill="#1A2E35"/>
<path d="M101.871 110.908C101.891 110.928 101.582 111.305 101.064 111.894C100.542 112.484 99.8118 113.286 98.9808 114.156C98.1499 115.026 97.3791 115.792 96.793 116.321C96.4999 116.586 96.251 116.791 96.0624 116.911C95.966 116.967 95.8938 117.023 95.8054 117.003C95.7613 116.975 95.7814 116.935 95.7854 116.927C95.7894 116.911 95.7974 116.907 95.8014 116.907C95.8095 116.903 95.8014 116.959 95.8255 116.967C95.8576 116.967 95.9379 116.911 96.0182 116.847C96.1868 116.71 96.4156 116.49 96.6966 116.217C97.2546 115.668 98.0053 114.882 98.8363 114.016C99.6432 113.173 100.374 112.411 100.964 111.798C101.506 111.229 101.851 110.888 101.871 110.908Z" fill="#1A2E35"/>
<path d="M103.782 106.966C103.742 106.958 103.866 106.336 103.866 105.322C103.87 104.816 103.822 104.215 103.718 103.553C103.597 102.895 103.417 102.182 103.144 101.46C102.863 100.742 102.518 100.088 102.164 99.5228C101.799 98.9614 101.434 98.4842 101.088 98.1112C100.406 97.3613 99.8961 96.9804 99.9242 96.9483C99.9323 96.9363 100.065 97.0245 100.294 97.1969C100.41 97.2811 100.551 97.3894 100.695 97.5298C100.844 97.6661 101.024 97.8185 101.197 98.007C101.558 98.3719 101.944 98.8491 102.325 99.4145C102.694 99.988 103.052 100.65 103.337 101.38C103.614 102.113 103.794 102.843 103.907 103.517C104.003 104.191 104.039 104.804 104.015 105.318C104.015 105.574 103.983 105.807 103.967 106.007C103.951 106.212 103.919 106.384 103.891 106.525C103.834 106.813 103.798 106.97 103.782 106.966Z" fill="#1A2E35"/>
<path d="M114.027 136.869C114.031 136.833 114.533 136.885 115.344 136.865C116.151 136.845 117.271 136.725 118.455 136.376C119.639 136.023 120.643 135.522 121.333 135.101C122.024 134.68 122.417 134.363 122.441 134.391C122.449 134.403 122.361 134.491 122.188 134.64C122.02 134.792 121.755 134.993 121.414 135.225C120.735 135.686 119.719 136.22 118.515 136.577C117.311 136.93 116.167 137.034 115.348 137.014C114.938 137.006 114.605 136.978 114.38 136.946C114.147 136.905 114.023 136.881 114.027 136.869Z" fill="#1A2E35"/>
<path d="M119.984 128.011C119.996 128.019 119.9 128.143 119.715 128.356C119.535 128.568 119.262 128.865 118.916 129.23C118.23 129.956 117.246 130.93 116.106 131.949C114.966 132.967 113.89 133.834 113.091 134.439C112.694 134.74 112.365 134.981 112.136 135.137C111.907 135.297 111.775 135.378 111.767 135.366C111.759 135.354 111.871 135.249 112.088 135.073C112.341 134.868 112.646 134.616 113.003 134.323C113.774 133.693 114.834 132.807 115.97 131.793C117.102 130.778 118.097 129.824 118.812 129.126C119.145 128.801 119.426 128.528 119.659 128.3C119.86 128.107 119.976 128.003 119.984 128.011Z" fill="#1A2E35"/>
</g>
</g>
<defs>
<clipPath id="clip0_301_4">
<rect width="233" height="233" fill="white"/>
</clipPath>
<clipPath id="clip1_301_4">
<rect width="70" height="109" fill="white" transform="translate(81 62)"/>
</clipPath>
</defs>
</svg>
